<svg xmlns="http://www.w3.org/2000/svg" viewBox="0 0 32 32" width="32" height="32">
  <rect width="32" height="32" rx="8" fill="#3a7d6c"/>
  <g fill="#fff">
    <path fill-rule="evenodd" d="M5.5 21V11h4c3 0 4.5 1.6 4.5 3.5S12.5 18 9.5 18H7.7V21ZM7.7 13v3h2c1.4 0 2.2-.6 2.2-1.5S11.1 13 9.7 13Z"/>
    <path fill-rule="evenodd" d="M15.5 21V11h4c3 0 4.5 1.5 4.5 3.3 0 1.4-1 2.6-2.5 3L24 21h-2.5l-2.2-3H17.7V21ZM17.7 13v2.8h2c1.4 0 2.2-.6 2.2-1.4s-.8-1.4-2.2-1.4Z"/>
    <rect x="25.5" y="9" width="2" height="14" rx="1"/>
  </g>
</svg>
